<mxfile host="app.diagrams.net" modified="2024-09-11T13:14:46.598Z" agent="Mozilla/5.0 (X11; Linux x86_64) AppleWebKit/537.36 (KHTML, like Gecko) Chrome/128.0.0.0 Safari/537.36" version="21.4.0" etag="uPx7MMMfcm3CgHvH5LY2" type="github">
  <diagram name="Page-1" id="_-cRVhJKm4gnzRX2dzGb">
    <mxGraphModel>
      <root>
        <mxCell id="0" />
        <mxCell id="1" parent="0" />
      </root>
    </mxGraphModel>
  </diagram>
</mxfile>
